<svg xmlns="http://www.w3.org/2000/svg" width="20" height="20" fill="#00" viewBox="0 0 20 20"><path d="M15.8335 2.49967h-.8334V.833008h-1.6666V2.49967H6.66679V.833008H5.00012V2.49967h-.83333c-.91667 0-1.66667.75-1.66667 1.66667V15.833c0 .9167.75 1.6667 1.66667 1.6667H15.8335c.9166 0 1.6666-.75 1.6666-1.6667V4.16634c0-.91667-.75-1.66667-1.6666-1.66667Zm0 13.33333H4.16679V7.49967H15.8335V15.833ZM4.16679 5.83301V4.16634H15.8335v1.66667H4.16679Zm4.63333 8.71669 4.94168-4.94169-.8833-.88334L8.80012 12.783l-1.75833-1.7583-.88333.8833 2.64166 2.6417Z"/></svg>