<svg width="16" height="16" viewBox="0 0 16 16" fill="none" xmlns="http://www.w3.org/2000/svg">
<path d="M11.1302 9.95648L10.7506 10.356C10.7506 10.356 9.84843 11.3059 7.38593 8.71325C4.92345 6.12072 5.8256 5.17092 5.8256 5.17092L6.0646 4.91928C6.65343 4.29939 6.70893 3.30415 6.19518 2.57759L5.1444 1.09135C4.50858 0.192093 3.27998 0.0733016 2.55123 0.840545L1.24323 2.21763C0.881877 2.59806 0.639727 3.09122 0.669094 3.6383C0.744219 5.0379 1.34228 8.04927 4.67948 11.5627C8.21843 15.2886 11.539 15.4366 12.8969 15.3026C13.3264 15.2602 13.6999 15.0286 14.0009 14.7117L15.1848 13.4654C15.9838 12.6241 15.7585 11.1818 14.7361 10.5934L13.144 9.67695C12.4727 9.29057 11.6548 9.40404 11.1302 9.95648Z" fill="#1C274C"/>
</svg>
