<svg width="20" height="20" viewBox="0 0 20 20" fill="none" xmlns="http://www.w3.org/2000/svg">
<path d="M18.5365 5.15L17.6365 4.45C17.5365 4.35 17.3365 4.25 17.1365 4.25H16.5365V3.85C16.5365 3.65 16.4365 3.45 16.3365 3.35L15.4365 2.45C15.3365 2.35 15.1365 2.25 14.9365 2.25H2.93648C2.73648 2.25 2.53648 2.35 2.43648 2.45L1.53648 3.35C1.33648 3.45 1.23648 3.65 1.23648 3.85V6.15C1.23648 6.35 1.33648 6.55 1.43648 6.65L2.33648 7.55C2.53648 7.85 2.73648 7.95 2.93648 7.95H14.8365C15.0365 7.95 15.2365 7.85 15.3365 7.75L16.2365 6.85C16.3365 6.75 16.4365 6.55 16.4365 6.35V5.75H16.8365L17.2365 6.05V8.65L16.7365 9.15H10.7365C10.5365 9.15 10.3365 9.25 10.2365 9.35L9.23648 10.35C9.13648 10.45 9.03648 10.65 9.03648 10.85V11.05H8.93648C8.53648 11.05 8.13648 11.35 8.13648 11.85V16.95C8.13648 17.35 8.43648 17.75 8.93648 17.75H10.7365C11.1365 17.75 11.5365 17.45 11.5365 16.95V11.85C11.5365 11.45 11.2365 11.05 10.7365 11.05L11.0365 10.75H17.1365C17.3365 10.75 17.5365 10.65 17.6365 10.55L18.5365 9.65C18.6365 9.55 18.7365 9.35 18.7365 9.15V5.75C18.8365 5.55 18.6365 5.25 18.5365 5.15ZM15.0365 5.95L14.5365 6.45H3.23648L2.83648 5.95V4.15L3.33648 3.65H14.6365L15.0365 4.15V5.95ZM9.93648 16.25H9.63648V12.65H9.93648V16.25Z" fill="black"/>
</svg>
