<svg width="20" height="20" viewBox="0 0 20 20" fill="none" xmlns="http://www.w3.org/2000/svg">
<rect width="20" height="20" fill="white"/>
<path d="M18.3335 9.99935C18.3335 9.08268 17.5835 8.33268 16.6668 8.33268V5.83268C16.6668 4.91602 15.9168 4.16602 15.0001 4.16602H5.00014C4.08348 4.16602 3.33348 4.91602 3.33348 5.83268V8.33268C2.41681 8.33268 1.66681 9.08268 1.66681 9.99935V14.166H2.77514L3.33348 15.8327H4.16681L4.72514 14.166H15.2835L15.8335 15.8327H16.6668L17.2251 14.166H18.3335V9.99935ZM15.0001 8.33268H10.8335V5.83268H15.0001V8.33268ZM5.00014 5.83268H9.16681V8.33268H5.00014V5.83268ZM3.33348 9.99935H16.6668V12.4993H3.33348V9.99935Z" fill="black"/>
</svg>
