<svg width="20" height="20" viewBox="0 0 20 20" fill="none" xmlns="http://www.w3.org/2000/svg">
<rect width="20" height="20" fill="white"/>
<path d="M2.50012 4.16667V7.5H4.16679V4.16667H7.50012V2.5H4.16679C3.25012 2.5 2.50012 3.25 2.50012 4.16667ZM4.16679 12.5H2.50012V15.8333C2.50012 16.75 3.25012 17.5 4.16679 17.5H7.50012V15.8333H4.16679V12.5ZM15.8335 15.8333H12.5001V17.5H15.8335C16.7501 17.5 17.5001 16.75 17.5001 15.8333V12.5H15.8335V15.8333ZM15.8335 2.5H12.5001V4.16667H15.8335V7.5H17.5001V4.16667C17.5001 3.25 16.7501 2.5 15.8335 2.5Z" fill="black"/>
</svg>
